solid 7p9x7p9x6in
  facet normal 0.000000e+00 0.000000e+00 1.000000e+00
    outer loop
      vertex 0.000000e+00 0.000000e+00 0.000000e+00
      vertex 2.006600e+02 0.000000e+00 0.000000e+00
      vertex 2.006600e+02 2.006600e+02 0.000000e+00
    endloop
  endfacet
  facet normal 0.000000e+00 0.000000e+00 1.000000e+00
    outer loop
      vertex 0.000000e+00 0.000000e+00 0.000000e+00
      vertex 2.006600e+02 2.006600e+02 0.000000e+00
      vertex 0.000000e+00 2.006600e+02 0.000000e+00
    endloop
  endfacet
  facet normal 1.000000e+00 0.000000e+00 0.000000e+00
    outer loop
      vertex 0.000000e+00 0.000000e+00 0.000000e+00
      vertex 0.000000e+00 2.006600e+02 0.000000e+00
      vertex 0.000000e+00 2.006600e+02 1.524000e+02
    endloop
  endfacet
  facet normal 1.000000e+00 0.000000e+00 0.000000e+00
    outer loop
      vertex 0.000000e+00 0.000000e+00 0.000000e+00
      vertex 0.000000e+00 2.006600e+02 1.524000e+02
      vertex 0.000000e+00 0.000000e+00 1.524000e+02
    endloop
  endfacet
  facet normal -1.000000e+00 0.000000e+00 0.000000e+00
    outer loop
      vertex 2.006600e+02 0.000000e+00 0.000000e+00
      vertex 2.006600e+02 0.000000e+00 1.524000e+02
      vertex 2.006600e+02 2.006600e+02 1.524000e+02
    endloop
  endfacet
  facet normal -1.000000e+00 0.000000e+00 0.000000e+00
    outer loop
      vertex 2.006600e+02 0.000000e+00 0.000000e+00
      vertex 2.006600e+02 2.006600e+02 1.524000e+02
      vertex 2.006600e+02 2.006600e+02 0.000000e+00
    endloop
  endfacet
  facet normal 0.000000e+00 1.000000e+00 0.000000e+00
    outer loop
      vertex 0.000000e+00 0.000000e+00 0.000000e+00
      vertex 0.000000e+00 0.000000e+00 1.524000e+02
      vertex 2.006600e+02 0.000000e+00 1.524000e+02
    endloop
  endfacet
  facet normal 0.000000e+00 1.000000e+00 0.000000e+00
    outer loop
      vertex 0.000000e+00 0.000000e+00 0.000000e+00
      vertex 2.006600e+02 0.000000e+00 1.524000e+02
      vertex 2.006600e+02 0.000000e+00 0.000000e+00
    endloop
  endfacet
  facet normal 0.000000e+00 -1.000000e+00 0.000000e+00
    outer loop
      vertex 0.000000e+00 2.006600e+02 0.000000e+00
      vertex 2.006600e+02 2.006600e+02 0.000000e+00
      vertex 2.006600e+02 2.006600e+02 1.524000e+02
    endloop
  endfacet
  facet normal 0.000000e+00 -1.000000e+00 0.000000e+00
    outer loop
      vertex 0.000000e+00 2.006600e+02 0.000000e+00
      vertex 2.006600e+02 2.006600e+02 1.524000e+02
      vertex 0.000000e+00 2.006600e+02 1.524000e+02
    endloop
  endfacet
  facet normal 0.000000e+00 0.000000e+00 1.000000e+00
    outer loop
      vertex 3.810000e+00 3.810000e+00 3.810000e+00
      vertex 1.968500e+02 3.810000e+00 3.810000e+00
      vertex 1.968500e+02 1.968500e+02 3.810000e+00
    endloop
  endfacet
  facet normal 0.000000e+00 0.000000e+00 1.000000e+00
    outer loop
      vertex 3.810000e+00 3.810000e+00 3.810000e+00
      vertex 1.968500e+02 1.968500e+02 3.810000e+00
      vertex 3.810000e+00 1.968500e+02 3.810000e+00
    endloop
  endfacet
  facet normal -1.000000e+00 0.000000e+00 0.000000e+00
    outer loop
      vertex 3.810000e+00 3.810000e+00 3.810000e+00
      vertex 3.810000e+00 3.810000e+00 1.524000e+02
      vertex 3.810000e+00 1.968500e+02 1.524000e+02
    endloop
  endfacet
  facet normal -1.000000e+00 0.000000e+00 0.000000e+00
    outer loop
      vertex 3.810000e+00 3.810000e+00 3.810000e+00
      vertex 3.810000e+00 1.968500e+02 1.524000e+02
      vertex 3.810000e+00 1.968500e+02 3.810000e+00
    endloop
  endfacet
  facet normal 1.000000e+00 0.000000e+00 0.000000e+00
    outer loop
      vertex 1.968500e+02 3.810000e+00 3.810000e+00
      vertex 1.968500e+02 1.968500e+02 3.810000e+00
      vertex 1.968500e+02 1.968500e+02 1.524000e+02
    endloop
  endfacet
  facet normal 1.000000e+00 0.000000e+00 0.000000e+00
    outer loop
      vertex 1.968500e+02 3.810000e+00 3.810000e+00
      vertex 1.968500e+02 1.968500e+02 1.524000e+02
      vertex 1.968500e+02 3.810000e+00 1.524000e+02
    endloop
  endfacet
  facet normal 0.000000e+00 -1.000000e+00 0.000000e+00
    outer loop
      vertex 3.810000e+00 3.810000e+00 3.810000e+00
      vertex 1.968500e+02 3.810000e+00 3.810000e+00
      vertex 1.968500e+02 3.810000e+00 1.524000e+02
    endloop
  endfacet
  facet normal 0.000000e+00 -1.000000e+00 0.000000e+00
    outer loop
      vertex 3.810000e+00 3.810000e+00 3.810000e+00
      vertex 1.968500e+02 3.810000e+00 1.524000e+02
      vertex 3.810000e+00 3.810000e+00 1.524000e+02
    endloop
  endfacet
  facet normal 0.000000e+00 1.000000e+00 0.000000e+00
    outer loop
      vertex 3.810000e+00 1.968500e+02 3.810000e+00
      vertex 3.810000e+00 1.968500e+02 1.524000e+02
      vertex 1.968500e+02 1.968500e+02 1.524000e+02
    endloop
  endfacet
  facet normal 0.000000e+00 1.000000e+00 0.000000e+00
    outer loop
      vertex 3.810000e+00 1.968500e+02 3.810000e+00
      vertex 1.968500e+02 1.968500e+02 1.524000e+02
      vertex 1.968500e+02 1.968500e+02 3.810000e+00
    endloop
  endfacet
  facet normal 0.000000e+00 0.000000e+00 1.000000e+00
    outer loop
      vertex 0.000000e+00 0.000000e+00 1.524000e+02
      vertex 3.810000e+00 0.000000e+00 1.524000e+02
      vertex 3.810000e+00 2.006600e+02 1.524000e+02
    endloop
  endfacet
  facet normal 0.000000e+00 0.000000e+00 1.000000e+00
    outer loop
      vertex 0.000000e+00 0.000000e+00 1.524000e+02
      vertex 3.810000e+00 2.006600e+02 1.524000e+02
      vertex 0.000000e+00 2.006600e+02 1.524000e+02
    endloop
  endfacet
  facet normal 0.000000e+00 0.000000e+00 1.000000e+00
    outer loop
      vertex 1.968500e+02 0.000000e+00 1.524000e+02
      vertex 2.006600e+02 0.000000e+00 1.524000e+02
      vertex 2.006600e+02 2.006600e+02 1.524000e+02
    endloop
  endfacet
  facet normal 0.000000e+00 0.000000e+00 1.000000e+00
    outer loop
      vertex 1.968500e+02 0.000000e+00 1.524000e+02
      vertex 2.006600e+02 2.006600e+02 1.524000e+02
      vertex 1.968500e+02 2.006600e+02 1.524000e+02
    endloop
  endfacet
  facet normal 0.000000e+00 0.000000e+00 1.000000e+00
    outer loop
      vertex 3.810000e+00 0.000000e+00 1.524000e+02
      vertex 1.968500e+02 0.000000e+00 1.524000e+02
      vertex 1.968500e+02 3.810000e+00 1.524000e+02
    endloop
  endfacet
  facet normal 0.000000e+00 0.000000e+00 1.000000e+00
    outer loop
      vertex 3.810000e+00 0.000000e+00 1.524000e+02
      vertex 1.968500e+02 3.810000e+00 1.524000e+02
      vertex 3.810000e+00 3.810000e+00 1.524000e+02
    endloop
  endfacet
  facet normal 0.000000e+00 0.000000e+00 1.000000e+00
    outer loop
      vertex 3.810000e+00 1.968500e+02 1.524000e+02
      vertex 1.968500e+02 1.968500e+02 1.524000e+02
      vertex 1.968500e+02 2.006600e+02 1.524000e+02
    endloop
  endfacet
  facet normal 0.000000e+00 0.000000e+00 1.000000e+00
    outer loop
      vertex 3.810000e+00 1.968500e+02 1.524000e+02
      vertex 1.968500e+02 2.006600e+02 1.524000e+02
      vertex 3.810000e+00 2.006600e+02 1.524000e+02
    endloop
  endfacet
endsolid 7p9x7p9x6in
