solid open_bottom_box_4x4x2_upside_down_0p15in_thick
facet normal 0.0 0.0 1.0
outer loop
vertex 0.0 0.0 0.0
vertex 101.6 0.0 0.0
vertex 101.6 101.6 0.0
endloop
endfacet
facet normal 0.0 0.0 1.0
outer loop
vertex 0.0 0.0 0.0
vertex 101.6 101.6 0.0
vertex 0.0 101.6 0.0
endloop
endfacet
facet normal 1.0 0.0 0.0
outer loop
vertex 0.0 0.0 0.0
vertex 0.0 101.6 0.0
vertex 0.0 101.6 50.8
endloop
endfacet
facet normal 1.0 0.0 0.0
outer loop
vertex 0.0 0.0 0.0
vertex 0.0 101.6 50.8
vertex 0.0 0.0 50.8
endloop
endfacet
facet normal -1.0 0.0 0.0
outer loop
vertex 101.6 0.0 0.0
vertex 101.6 0.0 50.8
vertex 101.6 101.6 50.8
endloop
endfacet
facet normal -1.0 0.0 0.0
outer loop
vertex 101.6 0.0 0.0
vertex 101.6 101.6 50.8
vertex 101.6 101.6 0.0
endloop
endfacet
facet normal 0.0 1.0 0.0
outer loop
vertex 0.0 0.0 0.0
vertex 0.0 0.0 50.8
vertex 101.6 0.0 50.8
endloop
endfacet
facet normal 0.0 1.0 0.0
outer loop
vertex 0.0 0.0 0.0
vertex 101.6 0.0 50.8
vertex 101.6 0.0 0.0
endloop
endfacet
facet normal 0.0 -1.0 0.0
outer loop
vertex 0.0 101.6 0.0
vertex 101.6 101.6 0.0
vertex 101.6 101.6 50.8
endloop
endfacet
facet normal 0.0 -1.0 0.0
outer loop
vertex 0.0 101.6 0.0
vertex 101.6 101.6 50.8
vertex 0.0 101.6 50.8
endloop
endfacet
facet normal 0.0 0.0 -1.0
outer loop
vertex 3.8099999999999996 3.8099999999999996 3.8099999999999996
vertex 3.8099999999999996 97.78999999999999 3.8099999999999996
vertex 97.78999999999999 97.78999999999999 3.8099999999999996
endloop
endfacet
facet normal 0.0 0.0 -1.0
outer loop
vertex 3.8099999999999996 3.8099999999999996 3.8099999999999996
vertex 97.78999999999999 97.78999999999999 3.8099999999999996
vertex 97.78999999999999 3.8099999999999996 3.8099999999999996
endloop
endfacet
facet normal -1.0 0.0 0.0
outer loop
vertex 3.8099999999999996 3.8099999999999996 3.8099999999999996
vertex 3.8099999999999996 3.8099999999999996 50.8
vertex 3.8099999999999996 97.78999999999999 50.8
endloop
endfacet
facet normal -1.0 0.0 0.0
outer loop
vertex 3.8099999999999996 3.8099999999999996 3.8099999999999996
vertex 3.8099999999999996 97.78999999999999 50.8
vertex 3.8099999999999996 97.78999999999999 3.8099999999999996
endloop
endfacet
facet normal 1.0 0.0 0.0
outer loop
vertex 97.78999999999999 3.8099999999999996 3.8099999999999996
vertex 97.78999999999999 97.78999999999999 3.8099999999999996
vertex 97.78999999999999 97.78999999999999 50.8
endloop
endfacet
facet normal 1.0 0.0 0.0
outer loop
vertex 97.78999999999999 3.8099999999999996 3.8099999999999996
vertex 97.78999999999999 97.78999999999999 50.8
vertex 97.78999999999999 3.8099999999999996 50.8
endloop
endfacet
facet normal 0.0 -1.0 0.0
outer loop
vertex 3.8099999999999996 3.8099999999999996 3.8099999999999996
vertex 97.78999999999999 3.8099999999999996 3.8099999999999996
vertex 97.78999999999999 3.8099999999999996 50.8
endloop
endfacet
facet normal 0.0 -1.0 0.0
outer loop
vertex 3.8099999999999996 3.8099999999999996 3.8099999999999996
vertex 97.78999999999999 3.8099999999999996 50.8
vertex 3.8099999999999996 3.8099999999999996 50.8
endloop
endfacet
facet normal 0.0 1.0 0.0
outer loop
vertex 3.8099999999999996 97.78999999999999 3.8099999999999996
vertex 3.8099999999999996 97.78999999999999 50.8
vertex 97.78999999999999 97.78999999999999 50.8
endloop
endfacet
facet normal 0.0 1.0 0.0
outer loop
vertex 3.8099999999999996 97.78999999999999 3.8099999999999996
vertex 97.78999999999999 97.78999999999999 50.8
vertex 97.78999999999999 97.78999999999999 3.8099999999999996
endloop
endfacet
facet normal 0.0 0.0 1.0
outer loop
vertex 0.0 0.0 50.8
vertex 3.8099999999999996 0.0 50.8
vertex 3.8099999999999996 101.6 50.8
endloop
endfacet
facet normal 0.0 0.0 1.0
outer loop
vertex 0.0 0.0 50.8
vertex 3.8099999999999996 101.6 50.8
vertex 0.0 101.6 50.8
endloop
endfacet
facet normal 0.0 0.0 1.0
outer loop
vertex 97.78999999999999 0.0 50.8
vertex 101.6 0.0 50.8
vertex 101.6 101.6 50.8
endloop
endfacet
facet normal 0.0 0.0 1.0
outer loop
vertex 97.78999999999999 0.0 50.8
vertex 101.6 101.6 50.8
vertex 97.78999999999999 101.6 50.8
endloop
endfacet
facet normal 0.0 0.0 1.0
outer loop
vertex 3.8099999999999996 0.0 50.8
vertex 97.78999999999999 0.0 50.8
vertex 97.78999999999999 3.8099999999999996 50.8
endloop
endfacet
facet normal 0.0 0.0 1.0
outer loop
vertex 3.8099999999999996 0.0 50.8
vertex 97.78999999999999 3.8099999999999996 50.8
vertex 3.8099999999999996 3.8099999999999996 50.8
endloop
endfacet
facet normal 0.0 0.0 1.0
outer loop
vertex 3.8099999999999996 97.78999999999999 50.8
vertex 97.78999999999999 97.78999999999999 50.8
vertex 97.78999999999999 101.6 50.8
endloop
endfacet
facet normal 0.0 0.0 1.0
outer loop
vertex 3.8099999999999996 97.78999999999999 50.8
vertex 97.78999999999999 101.6 50.8
vertex 3.8099999999999996 101.6 50.8
endloop
endfacet
endsolid
