solid box
facet normal 0.0 0.0 1.0
outer loop
vertex 0 0 0
vertex 149.86 0 0
vertex 149.86 149.86 0
endloop
endfacet
facet normal 0.0 0.0 1.0
outer loop
vertex 0 0 0
vertex 149.86 149.86 0
vertex 0 149.86 0
endloop
endfacet
facet normal 1.0 0.0 0.0
outer loop
vertex 0 0 0
vertex 0 149.86 0
vertex 0 149.86 101.6
endloop
endfacet
facet normal 1.0 0.0 0.0
outer loop
vertex 0 0 0
vertex 0 149.86 101.6
vertex 0 0 101.6
endloop
endfacet
facet normal -1.0 0.0 0.0
outer loop
vertex 149.86 0 0
vertex 149.86 0 101.6
vertex 149.86 149.86 101.6
endloop
endfacet
facet normal -1.0 0.0 0.0
outer loop
vertex 149.86 0 0
vertex 149.86 149.86 101.6
vertex 149.86 149.86 0
endloop
endfacet
facet normal 0.0 1.0 0.0
outer loop
vertex 0 0 0
vertex 0 0 101.6
vertex 149.86 0 101.6
endloop
endfacet
facet normal 0.0 1.0 0.0
outer loop
vertex 0 0 0
vertex 149.86 0 101.6
vertex 149.86 0 0
endloop
endfacet
facet normal 0.0 -1.0 0.0
outer loop
vertex 0 149.86 0
vertex 149.86 149.86 0
vertex 149.86 149.86 101.6
endloop
endfacet
facet normal 0.0 -1.0 0.0
outer loop
vertex 0 149.86 0
vertex 149.86 149.86 101.6
vertex 0 149.86 101.6
endloop
endfacet
facet normal 0.0 0.0 -1.0
outer loop
vertex 3.8099999999999996 3.8099999999999996 3.8099999999999996
vertex 3.8099999999999996 146.05 3.8099999999999996
vertex 146.05 146.05 3.8099999999999996
endloop
endfacet
facet normal 0.0 0.0 -1.0
outer loop
vertex 3.8099999999999996 3.8099999999999996 3.8099999999999996
vertex 146.05 146.05 3.8099999999999996
vertex 146.05 3.8099999999999996 3.8099999999999996
endloop
endfacet
facet normal -1.0 0.0 0.0
outer loop
vertex 3.8099999999999996 3.8099999999999996 3.8099999999999996
vertex 3.8099999999999996 3.8099999999999996 101.6
vertex 3.8099999999999996 146.05 101.6
endloop
endfacet
facet normal -1.0 0.0 0.0
outer loop
vertex 3.8099999999999996 3.8099999999999996 3.8099999999999996
vertex 3.8099999999999996 146.05 101.6
vertex 3.8099999999999996 146.05 3.8099999999999996
endloop
endfacet
facet normal 1.0 0.0 0.0
outer loop
vertex 146.05 3.8099999999999996 3.8099999999999996
vertex 146.05 146.05 3.8099999999999996
vertex 146.05 146.05 101.6
endloop
endfacet
facet normal 1.0 0.0 0.0
outer loop
vertex 146.05 3.8099999999999996 3.8099999999999996
vertex 146.05 146.05 101.6
vertex 146.05 3.8099999999999996 101.6
endloop
endfacet
facet normal 0.0 -1.0 0.0
outer loop
vertex 3.8099999999999996 3.8099999999999996 3.8099999999999996
vertex 146.05 3.8099999999999996 3.8099999999999996
vertex 146.05 3.8099999999999996 101.6
endloop
endfacet
facet normal 0.0 -1.0 0.0
outer loop
vertex 3.8099999999999996 3.8099999999999996 3.8099999999999996
vertex 146.05 3.8099999999999996 101.6
vertex 3.8099999999999996 3.8099999999999996 101.6
endloop
endfacet
facet normal 0.0 1.0 0.0
outer loop
vertex 3.8099999999999996 146.05 3.8099999999999996
vertex 3.8099999999999996 146.05 101.6
vertex 146.05 146.05 101.6
endloop
endfacet
facet normal 0.0 1.0 0.0
outer loop
vertex 3.8099999999999996 146.05 3.8099999999999996
vertex 146.05 146.05 101.6
vertex 146.05 146.05 3.8099999999999996
endloop
endfacet
facet normal 0.0 0.0 1.0
outer loop
vertex 0 0 101.6
vertex 3.8099999999999996 0 101.6
vertex 3.8099999999999996 149.86 101.6
endloop
endfacet
facet normal 0.0 0.0 1.0
outer loop
vertex 0 0 101.6
vertex 3.8099999999999996 149.86 101.6
vertex 0 149.86 101.6
endloop
endfacet
facet normal 0.0 0.0 1.0
outer loop
vertex 146.05 0 101.6
vertex 149.86 0 101.6
vertex 149.86 149.86 101.6
endloop
endfacet
facet normal 0.0 0.0 1.0
outer loop
vertex 146.05 0 101.6
vertex 149.86 149.86 101.6
vertex 146.05 149.86 101.6
endloop
endfacet
facet normal 0.0 0.0 1.0
outer loop
vertex 3.8099999999999996 0 101.6
vertex 146.05 0 101.6
vertex 146.05 3.8099999999999996 101.6
endloop
endfacet
facet normal 0.0 0.0 1.0
outer loop
vertex 3.8099999999999996 0 101.6
vertex 146.05 3.8099999999999996 101.6
vertex 3.8099999999999996 3.8099999999999996 101.6
endloop
endfacet
facet normal 0.0 0.0 1.0
outer loop
vertex 3.8099999999999996 146.05 101.6
vertex 146.05 146.05 101.6
vertex 146.05 149.86 101.6
endloop
endfacet
facet normal 0.0 0.0 1.0
outer loop
vertex 3.8099999999999996 146.05 101.6
vertex 146.05 149.86 101.6
vertex 3.8099999999999996 149.86 101.6
endloop
endfacet
endsolid
