solid open_bottom_box_9p8x9p8x7_upside_down_0p15in_thick
  facet normal 0.000000e+00 0.000000e+00 1.000000e+00
    outer loop
      vertex 0.000000e+00 0.000000e+00 0.000000e+00
      vertex 2.489200e+02 0.000000e+00 0.000000e+00
      vertex 2.489200e+02 2.489200e+02 0.000000e+00
    endloop
  endfacet
  facet normal 0.000000e+00 0.000000e+00 1.000000e+00
    outer loop
      vertex 0.000000e+00 0.000000e+00 0.000000e+00
      vertex 2.489200e+02 2.489200e+02 0.000000e+00
      vertex 0.000000e+00 2.489200e+02 0.000000e+00
    endloop
  endfacet
  facet normal 1.000000e+00 0.000000e+00 0.000000e+00
    outer loop
      vertex 0.000000e+00 0.000000e+00 0.000000e+00
      vertex 0.000000e+00 2.489200e+02 0.000000e+00
      vertex 0.000000e+00 2.489200e+02 1.778000e+02
    endloop
  endfacet
  facet normal 1.000000e+00 0.000000e+00 0.000000e+00
    outer loop
      vertex 0.000000e+00 0.000000e+00 0.000000e+00
      vertex 0.000000e+00 2.489200e+02 1.778000e+02
      vertex 0.000000e+00 0.000000e+00 1.778000e+02
    endloop
  endfacet
  facet normal -1.000000e+00 0.000000e+00 0.000000e+00
    outer loop
      vertex 2.489200e+02 0.000000e+00 0.000000e+00
      vertex 2.489200e+02 0.000000e+00 1.778000e+02
      vertex 2.489200e+02 2.489200e+02 1.778000e+02
    endloop
  endfacet
  facet normal -1.000000e+00 0.000000e+00 0.000000e+00
    outer loop
      vertex 2.489200e+02 0.000000e+00 0.000000e+00
      vertex 2.489200e+02 2.489200e+02 1.778000e+02
      vertex 2.489200e+02 2.489200e+02 0.000000e+00
    endloop
  endfacet
  facet normal 0.000000e+00 1.000000e+00 0.000000e+00
    outer loop
      vertex 0.000000e+00 0.000000e+00 0.000000e+00
      vertex 0.000000e+00 0.000000e+00 1.778000e+02
      vertex 2.489200e+02 0.000000e+00 1.778000e+02
    endloop
  endfacet
  facet normal 0.000000e+00 1.000000e+00 0.000000e+00
    outer loop
      vertex 0.000000e+00 0.000000e+00 0.000000e+00
      vertex 2.489200e+02 0.000000e+00 1.778000e+02
      vertex 2.489200e+02 0.000000e+00 0.000000e+00
    endloop
  endfacet
  facet normal 0.000000e+00 -1.000000e+00 0.000000e+00
    outer loop
      vertex 0.000000e+00 2.489200e+02 0.000000e+00
      vertex 2.489200e+02 2.489200e+02 0.000000e+00
      vertex 2.489200e+02 2.489200e+02 1.778000e+02
    endloop
  endfacet
  facet normal 0.000000e+00 -1.000000e+00 0.000000e+00
    outer loop
      vertex 0.000000e+00 2.489200e+02 0.000000e+00
      vertex 2.489200e+02 2.489200e+02 1.778000e+02
      vertex 0.000000e+00 2.489200e+02 1.778000e+02
    endloop
  endfacet
  facet normal 0.000000e+00 0.000000e+00 -1.000000e+00
    outer loop
      vertex 3.810000e+00 3.810000e+00 3.810000e+00
      vertex 3.810000e+00 2.451100e+02 3.810000e+00
      vertex 2.451100e+02 2.451100e+02 3.810000e+00
    endloop
  endfacet
  facet normal 0.000000e+00 0.000000e+00 -1.000000e+00
    outer loop
      vertex 3.810000e+00 3.810000e+00 3.810000e+00
      vertex 2.451100e+02 2.451100e+02 3.810000e+00
      vertex 2.451100e+02 3.810000e+00 3.810000e+00
    endloop
  endfacet
  facet normal -1.000000e+00 0.000000e+00 0.000000e+00
    outer loop
      vertex 3.810000e+00 3.810000e+00 3.810000e+00
      vertex 3.810000e+00 3.810000e+00 1.778000e+02
      vertex 3.810000e+00 2.451100e+02 1.778000e+02
    endloop
  endfacet
  facet normal -1.000000e+00 0.000000e+00 0.000000e+00
    outer loop
      vertex 3.810000e+00 3.810000e+00 3.810000e+00
      vertex 3.810000e+00 2.451100e+02 1.778000e+02
      vertex 3.810000e+00 2.451100e+02 3.810000e+00
    endloop
  endfacet
  facet normal 1.000000e+00 0.000000e+00 0.000000e+00
    outer loop
      vertex 2.451100e+02 3.810000e+00 3.810000e+00
      vertex 2.451100e+02 2.451100e+02 3.810000e+00
      vertex 2.451100e+02 2.451100e+02 1.778000e+02
    endloop
  endfacet
  facet normal 1.000000e+00 0.000000e+00 0.000000e+00
    outer loop
      vertex 2.451100e+02 3.810000e+00 3.810000e+00
      vertex 2.451100e+02 2.451100e+02 1.778000e+02
      vertex 2.451100e+02 3.810000e+00 1.778000e+02
    endloop
  endfacet
  facet normal 0.000000e+00 -1.000000e+00 0.000000e+00
    outer loop
      vertex 3.810000e+00 3.810000e+00 3.810000e+00
      vertex 2.451100e+02 3.810000e+00 3.810000e+00
      vertex 2.451100e+02 3.810000e+00 1.778000e+02
    endloop
  endfacet
  facet normal 0.000000e+00 -1.000000e+00 0.000000e+00
    outer loop
      vertex 3.810000e+00 3.810000e+00 3.810000e+00
      vertex 2.451100e+02 3.810000e+00 1.778000e+02
      vertex 3.810000e+00 3.810000e+00 1.778000e+02
    endloop
  endfacet
  facet normal 0.000000e+00 1.000000e+00 0.000000e+00
    outer loop
      vertex 3.810000e+00 2.451100e+02 3.810000e+00
      vertex 3.810000e+00 2.451100e+02 1.778000e+02
      vertex 2.451100e+02 2.451100e+02 1.778000e+02
    endloop
  endfacet
  facet normal 0.000000e+00 1.000000e+00 0.000000e+00
    outer loop
      vertex 3.810000e+00 2.451100e+02 3.810000e+00
      vertex 2.451100e+02 2.451100e+02 1.778000e+02
      vertex 2.451100e+02 2.451100e+02 3.810000e+00
    endloop
  endfacet
  facet normal 0.000000e+00 0.000000e+00 1.000000e+00
    outer loop
      vertex 0.000000e+00 0.000000e+00 1.778000e+02
      vertex 3.810000e+00 0.000000e+00 1.778000e+02
      vertex 3.810000e+00 2.489200e+02 1.778000e+02
    endloop
  endfacet
  facet normal 0.000000e+00 0.000000e+00 1.000000e+00
    outer loop
      vertex 0.000000e+00 0.000000e+00 1.778000e+02
      vertex 3.810000e+00 2.489200e+02 1.778000e+02
      vertex 0.000000e+00 2.489200e+02 1.778000e+02
    endloop
  endfacet
  facet normal 0.000000e+00 0.000000e+00 1.000000e+00
    outer loop
      vertex 2.451100e+02 0.000000e+00 1.778000e+02
      vertex 2.489200e+02 0.000000e+00 1.778000e+02
      vertex 2.489200e+02 2.489200e+02 1.778000e+02
    endloop
  endfacet
  facet normal 0.000000e+00 0.000000e+00 1.000000e+00
    outer loop
      vertex 2.451100e+02 0.000000e+00 1.778000e+02
      vertex 2.489200e+02 2.489200e+02 1.778000e+02
      vertex 2.451100e+02 2.489200e+02 1.778000e+02
    endloop
  endfacet
  facet normal 0.000000e+00 0.000000e+00 1.000000e+00
    outer loop
      vertex 3.810000e+00 0.000000e+00 1.778000e+02
      vertex 2.451100e+02 0.000000e+00 1.778000e+02
      vertex 2.451100e+02 3.810000e+00 1.778000e+02
    endloop
  endfacet
  facet normal 0.000000e+00 0.000000e+00 1.000000e+00
    outer loop
      vertex 3.810000e+00 0.000000e+00 1.778000e+02
      vertex 2.451100e+02 3.810000e+00 1.778000e+02
      vertex 3.810000e+00 3.810000e+00 1.778000e+02
    endloop
  endfacet
  facet normal 0.000000e+00 0.000000e+00 1.000000e+00
    outer loop
      vertex 3.810000e+00 2.451100e+02 1.778000e+02
      vertex 2.451100e+02 2.451100e+02 1.778000e+02
      vertex 2.451100e+02 2.489200e+02 1.778000e+02
    endloop
  endfacet
  facet normal 0.000000e+00 0.000000e+00 1.000000e+00
    outer loop
      vertex 3.810000e+00 2.451100e+02 1.778000e+02
      vertex 2.451100e+02 2.489200e+02 1.778000e+02
      vertex 3.810000e+00 2.489200e+02 1.778000e+02
    endloop
  endfacet
endsolid open_bottom_box_9p8x9p8x7_upside_down_0p15in_thick
